<svg viewBox="0 -27 512 512" xmlns="http://www.w3.org/2000/svg"><path d="m36.265625 201.644531c-21.824219 8.246094-36.265625 29.140625-36.265625 52.472657v56.808593l53.328125-20.152343v-95.578126zm0 0" fill="#c10000"/><path d="m196.523438 201.644531c21.824218 8.246094 36.265624 29.140625 36.265624 52.472657v56.808593l-53.332031-20.152343v-95.578126zm0 0" fill="#a10000"/><path d="m181.582031 293.898438v-136.097657c0-36-29.1875-65.1875-65.1875-65.1875-36.003906 0-65.1875 29.1875-65.1875 65.1875v118.714844c0 71.648437 58.085938 129.734375 129.734375 129.734375h72.011719l-16.84375-11.101562c-34.039063-22.4375-54.527344-60.480469-54.527344-101.25zm0 0" fill="#ff583e"/><path d="m252.953125 406.25-16.84375-11.101562c-34.042969-22.4375-54.527344-60.480469-54.527344-101.246094v-136.101563c0-36-29.1875-65.1875-65.1875-65.1875v296.464844c19.007813 10.921875 41.050781 17.171875 64.546875 17.171875zm0 0" fill="#f92814"/><path d="m264.316406 406.25c8.664063-.886719 19.273438-3.597656 26.644532-10.96875 14.527343-14.523438 10.96875-41.636719 10.96875-41.636719s-27.113282-3.558593-41.640626 10.96875c-14.527343 14.527344-10.96875 41.636719-10.96875 41.636719s-3.558593 27.113281 10.96875 41.640625c14.527344 14.523437 41.640626 10.964844 41.640626 10.964844s3.558593-27.109375-10.96875-41.636719c-7.371094-7.371094-17.980469-10.082031-26.644532-10.96875zm0 0" fill="#c10000"/><path d="m264.316406 406.25h-14.996094s-3.558593 27.113281 10.96875 41.640625c14.527344 14.523437 41.636719 10.964844 41.636719 10.964844s3.558594-27.109375-10.964843-41.636719c-7.371094-7.371094-17.980469-10.082031-26.644532-10.96875zm0 0" fill="#a10000"/><path d="m475.734375 257.597656c21.824219-8.246094 36.265625-29.140625 36.265625-52.472656v-56.808594l-53.328125 20.152344v95.578125zm0 0" fill="#0053bf"/><path d="m315.476562 257.597656c-21.824218-8.246094-36.265624-29.140625-36.265624-52.472656v-56.808594l53.332031 20.152344v95.578125zm0 0" fill="#2864f0"/><path d="m330.417969 165.34375v136.097656c0 36 29.1875 65.183594 65.1875 65.183594 36.003906 0 65.1875-29.183594 65.1875-65.183594v-118.714844c0-71.648437-58.085938-129.734374-129.734375-129.734374h-72.011719l16.84375 11.101562c34.039063 22.4375 54.527344 60.476562 54.527344 101.25zm0 0" fill="#3389ff"/><path d="m259.046875 52.992188 16.84375 11.101562c34.042969 22.4375 54.527344 60.476562 54.527344 101.246094v136.097656c0 36.003906 29.1875 65.1875 65.1875 65.1875v-296.460938c-19.007813-10.925781-41.050781-17.171874-64.546875-17.171874zm0 0" fill="#549cff"/><path d="m247.683594 52.992188c-8.664063.882812-19.273438 3.59375-26.644532 10.964843-14.527343 14.527344-10.96875 41.640625-10.96875 41.640625s27.113282 3.558594 41.640626-10.96875c14.527343-14.527344 10.96875-41.636718 10.96875-41.636718s3.558593-27.113282-10.96875-41.640626c-14.527344-14.527343-41.640626-10.964843-41.640626-10.964843s-3.558593 27.109375 10.96875 41.636719c7.371094 7.371093 17.980469 10.082031 26.644532 10.96875zm0 0" fill="#0053bf"/><path d="m247.683594 52.992188h14.996094s3.558593-27.113282-10.96875-41.640626c-14.527344-14.527343-41.636719-10.964843-41.636719-10.964843s-3.558594 27.109375 10.964843 41.636719c7.371094 7.371093 17.980469 10.082031 26.644532 10.96875zm0 0" fill="#2864f0"/></svg>